<svg width="23" height="20" viewBox="0 0 23 20" fill="none" xmlns="http://www.w3.org/2000/svg">
<path d="M9.78149 1.95728L1.26935 16.017C1.09385 16.3177 1.00099 16.6587 1.00001 17.0059C0.999025 17.3531 1.08996 17.6946 1.26375 17.9963C1.43755 18.2979 1.68815 18.5493 1.99063 18.7254C2.29311 18.9015 2.63692 18.9962 2.98786 19H20.0121C20.3631 18.9962 20.7069 18.9015 21.0094 18.7254C21.3118 18.5493 21.5625 18.2979 21.7362 17.9963C21.91 17.6946 22.001 17.3531 22 17.0059C21.999 16.6587 21.9061 16.3177 21.7306 16.017L13.2185 1.95728C13.0393 1.66505 12.7871 1.42345 12.4861 1.25577C12.1851 1.08809 11.8454 1 11.5 1C11.1546 1 10.8149 1.08809 10.5139 1.25577C10.2129 1.42345 9.96065 1.66505 9.78149 1.95728V1.95728Z" stroke="#DB5357" stroke-width="2" stroke-linecap="round" stroke-linejoin="round"/>
<path d="M11.5 7.06812V11.0454" stroke="#DB5357" stroke-width="2" stroke-linecap="round" stroke-linejoin="round"/>
<path d="M11.5 15.0227H11.51" stroke="#DB5357" stroke-width="2" stroke-linecap="round" stroke-linejoin="round"/>
</svg>
