<svg width="21" height="22" viewBox="0 0 21 22" fill="none" xmlns="http://www.w3.org/2000/svg">
<g opacity="0.6">
<path d="M17.1785 10H3.09239C1.98102 10 1.08008 10.8954 1.08008 12V19C1.08008 20.1046 1.98102 21 3.09239 21H17.1785C18.2899 21 19.1908 20.1046 19.1908 19V12C19.1908 10.8954 18.2899 10 17.1785 10Z" stroke="#52665A" stroke-width="2" stroke-linecap="round" stroke-linejoin="round"/>
<path d="M5.10449 10V6C5.10449 4.67392 5.63452 3.40215 6.57797 2.46447C7.52142 1.52678 8.80102 1 10.1353 1C11.4695 1 12.7491 1.52678 13.6926 2.46447C14.636 3.40215 15.166 4.67392 15.166 6V10" stroke="#52665A" stroke-width="2" stroke-linecap="round" stroke-linejoin="round"/>
</g>
</svg>
